<svg id="svg" version="1.1" xmlns="http://www.w3.org/2000/svg" xmlns:xlink="http://www.w3.org/1999/xlink" width="400" height="400" viewBox="0, 0, 400,400"><g id="svgg"><path id="path0" d="M333.574 19.602 C 332.564 20.167,330.244 21.450,328.418 22.454 C 319.505 27.356,317.742 28.385,318.007 28.533 C 318.156 28.616,319.329 28.951,320.613 29.276 C 339.728 34.116,357.075 48.548,365.830 66.894 C 367.924 71.281,370.049 77.259,370.711 80.623 C 371.096 82.584,370.523 83.376,376.270 72.949 C 377.750 70.264,379.422 67.246,379.985 66.244 L 381.009 64.421 380.643 62.728 C 375.594 39.348,359.188 22.432,338.281 19.046 C 337.261 18.881,336.197 18.707,335.917 18.661 C 335.560 18.601,334.862 18.882,333.574 19.602 M115.137 20.794 C 115.029 20.827,114.414 20.968,113.770 21.106 C 109.723 21.975,108.628 22.808,99.356 32.075 C 95.188 36.240,91.689 39.648,91.581 39.648 C 91.472 39.648,91.449 39.758,91.530 39.893 C 91.645 40.085,91.615 40.087,91.386 39.902 C 91.226 39.772,90.791 39.626,90.420 39.577 C 88.780 39.360,78.918 37.595,78.516 37.446 C 78.354 37.386,78.091 37.333,77.930 37.327 C 77.769 37.321,77.417 37.270,77.148 37.214 C 76.880 37.158,76.363 37.068,76.001 37.014 C 75.638 36.960,74.671 36.788,73.852 36.631 C 73.033 36.475,71.221 36.165,69.824 35.943 C 66.881 35.476,66.638 35.433,65.332 35.144 C 64.795 35.025,64.114 34.917,63.818 34.904 C 63.523 34.891,63.281 34.816,63.281 34.738 C 63.281 34.660,63.024 34.604,62.709 34.613 C 62.395 34.622,61.758 34.527,61.293 34.402 C 60.829 34.277,57.998 33.777,55.002 33.291 C 52.006 32.804,49.414 32.334,49.241 32.245 C 49.067 32.156,48.684 32.097,48.389 32.113 C 48.093 32.129,47.852 32.073,47.852 31.990 C 47.852 31.906,47.534 31.888,47.147 31.950 C 46.645 32.030,46.482 31.998,46.581 31.838 C 46.662 31.707,46.610 31.635,46.455 31.664 C 46.226 31.707,45.514 31.607,44.043 31.324 C 43.828 31.283,42.861 31.119,41.895 30.960 C 40.928 30.802,39.521 30.570,38.770 30.446 C 38.018 30.322,36.743 30.089,35.938 29.929 C 35.132 29.769,34.275 29.627,34.033 29.614 C 33.792 29.601,33.594 29.536,33.594 29.470 C 33.594 29.404,33.396 29.365,33.154 29.384 C 32.913 29.402,32.605 29.336,32.472 29.236 C 32.338 29.137,32.062 29.099,31.859 29.152 C 31.655 29.205,31.384 29.184,31.256 29.105 C 31.036 28.969,23.846 36.096,6.157 53.978 C -0.384 60.591,-0.232 60.411,0.439 60.765 C 0.681 60.892,0.924 61.064,0.979 61.147 C 1.070 61.285,1.860 61.668,5.402 63.294 C 6.063 63.598,6.663 63.940,6.734 64.055 C 6.805 64.170,6.945 64.214,7.045 64.152 C 7.145 64.090,7.227 64.111,7.227 64.199 C 7.227 64.286,7.512 64.483,7.861 64.636 C 9.991 65.572,11.436 66.263,11.522 66.389 C 11.636 66.555,15.895 68.623,16.555 68.833 C 16.795 68.909,16.992 69.059,16.992 69.165 C 16.992 69.272,17.073 69.309,17.171 69.249 C 17.269 69.188,17.379 69.205,17.415 69.286 C 17.471 69.412,21.818 71.620,25.879 73.586 C 26.523 73.898,27.380 74.343,27.783 74.574 C 28.186 74.804,28.517 74.929,28.519 74.850 C 28.520 74.771,28.586 74.804,28.665 74.922 C 28.744 75.040,29.380 75.388,30.078 75.696 C 30.776 76.004,31.765 76.498,32.275 76.794 C 32.786 77.091,33.204 77.270,33.206 77.192 C 33.208 77.114,33.274 77.143,33.353 77.255 C 33.432 77.367,35.430 78.402,37.793 79.554 C 40.156 80.707,42.354 81.792,42.676 81.966 C 44.526 82.964,45.405 83.400,47.119 84.173 C 48.167 84.645,49.023 85.103,49.023 85.191 C 49.023 85.280,49.112 85.352,49.221 85.352 C 49.531 85.352,54.387 87.733,54.460 87.921 C 54.496 88.013,54.596 88.045,54.682 87.992 C 54.768 87.938,54.947 88.026,55.080 88.186 C 55.213 88.346,55.392 88.477,55.479 88.477 C 55.765 88.477,59.469 90.302,59.616 90.514 C 59.695 90.629,59.761 90.643,59.763 90.546 C 59.764 90.449,59.919 90.503,60.107 90.667 C 60.295 90.830,61.372 91.378,62.500 91.883 C 63.628 92.389,64.683 92.920,64.844 93.063 C 65.005 93.207,65.752 93.601,66.504 93.939 C 68.712 94.932,70.009 95.592,70.163 95.801 C 70.242 95.908,70.308 95.917,70.310 95.819 C 70.311 95.722,70.473 95.788,70.670 95.966 C 70.867 96.144,71.087 96.231,71.158 96.159 C 71.230 96.087,71.289 96.125,71.289 96.243 C 71.289 96.361,71.477 96.518,71.706 96.590 C 72.399 96.810,75.481 98.294,75.593 98.463 C 75.651 98.549,76.882 99.167,78.328 99.836 C 79.774 100.505,81.074 101.168,81.217 101.309 C 81.360 101.450,81.550 101.521,81.640 101.465 C 81.729 101.410,81.832 101.431,81.868 101.512 C 81.939 101.672,84.071 102.733,85.347 103.244 C 85.779 103.417,86.133 103.642,86.133 103.744 C 86.133 103.846,86.215 103.879,86.315 103.817 C 86.415 103.755,86.552 103.795,86.620 103.904 C 86.728 104.080,90.322 105.859,90.568 105.859 C 90.620 105.859,90.918 106.041,91.230 106.263 C 91.542 106.485,91.797 106.604,91.797 106.526 C 91.797 106.448,91.951 106.513,92.139 106.670 C 92.418 106.904,96.932 109.167,101.172 111.200 C 101.655 111.431,102.080 111.687,102.116 111.768 C 102.152 111.848,102.342 111.914,102.539 111.914 C 102.736 111.914,102.926 111.983,102.962 112.067 C 103.028 112.220,104.749 113.072,106.615 113.875 C 107.166 114.112,107.617 114.383,107.617 114.477 C 107.617 114.571,107.717 114.648,107.839 114.648 C 108.144 114.648,112.960 117.014,113.108 117.236 C 113.173 117.335,113.281 117.414,113.347 117.411 C 113.537 117.402,118.056 119.559,118.164 119.710 C 118.269 119.857,120.931 121.153,122.607 121.873 C 123.171 122.115,123.633 122.391,123.633 122.485 C 123.633 122.579,123.732 122.656,123.854 122.656 C 124.160 122.656,128.975 125.022,129.123 125.244 C 129.189 125.343,129.277 125.411,129.319 125.396 C 129.423 125.357,134.058 127.568,134.180 127.714 C 134.298 127.857,137.205 129.275,138.623 129.883 C 139.187 130.124,139.648 130.399,139.648 130.493 C 139.648 130.587,139.750 130.664,139.874 130.664 C 140.172 130.664,144.984 133.037,145.139 133.260 C 145.205 133.354,145.293 133.419,145.334 133.403 C 145.433 133.366,150.067 135.583,150.195 135.729 C 150.315 135.865,151.920 136.656,154.003 137.604 C 154.862 137.995,155.609 138.377,155.663 138.454 C 155.758 138.587,156.088 138.753,159.375 140.320 C 160.181 140.704,161.235 141.231,161.719 141.492 C 162.202 141.752,163.301 142.311,164.160 142.733 C 165.020 143.155,166.154 143.737,166.681 144.027 C 167.463 144.456,167.683 144.506,167.876 144.298 C 168.006 144.158,169.765 141.978,171.786 139.453 C 177.001 132.938,183.001 125.691,187.292 120.726 C 188.534 119.289,189.814 117.790,190.137 117.396 C 191.961 115.166,199.530 106.676,205.644 100.003 C 213.885 91.008,227.433 77.331,235.607 69.756 C 239.412 66.230,239.554 66.037,238.301 66.084 C 237.881 66.100,237.578 66.047,237.628 65.967 C 237.709 65.836,237.051 65.754,235.806 65.741 C 235.572 65.738,235.423 65.667,235.475 65.583 C 235.527 65.499,235.296 65.430,234.961 65.430 C 234.627 65.430,233.984 65.349,233.534 65.249 C 232.815 65.091,231.761 64.910,229.281 64.520 C 228.914 64.462,228.481 64.347,228.320 64.265 C 228.159 64.183,227.830 64.133,227.588 64.154 C 227.346 64.175,227.148 64.118,227.148 64.026 C 227.148 63.934,226.936 63.898,226.677 63.945 C 226.417 63.992,226.152 63.977,226.087 63.912 C 226.022 63.847,225.817 63.776,225.631 63.754 C 224.186 63.582,214.410 61.868,213.883 61.694 C 213.516 61.573,212.857 61.449,212.418 61.418 C 211.980 61.387,211.342 61.274,211.001 61.168 C 210.660 61.061,210.330 61.024,210.269 61.086 C 210.207 61.147,210.156 61.156,210.156 61.106 C 210.156 61.055,211.613 59.524,213.393 57.704 C 218.600 52.379,219.946 49.670,219.947 44.505 C 219.948 39.670,218.093 35.632,214.376 32.379 C 213.078 31.244,209.918 29.543,209.498 29.753 C 209.463 29.771,209.311 29.682,209.160 29.557 C 207.951 28.554,201.073 28.528,199.512 29.521 C 199.404 29.590,198.745 29.881,198.047 30.168 C 195.524 31.206,194.635 32.003,183.374 43.326 L 172.433 54.327 171.031 54.092 C 170.260 53.962,169.279 53.745,168.852 53.609 C 168.424 53.473,167.875 53.399,167.631 53.443 C 167.387 53.487,167.188 53.438,167.188 53.333 C 167.188 53.229,166.924 53.177,166.602 53.218 C 166.279 53.258,166.016 53.205,166.016 53.099 C 166.016 52.993,165.938 52.955,165.843 53.013 C 165.748 53.072,165.418 53.039,165.110 52.939 C 164.803 52.839,164.199 52.713,163.770 52.659 C 162.713 52.525,159.848 52.046,156.543 51.451 C 155.039 51.180,153.633 50.933,153.418 50.903 C 153.203 50.873,152.874 50.780,152.686 50.696 C 152.498 50.613,152.221 50.591,152.070 50.649 C 151.919 50.707,151.739 50.697,151.669 50.628 C 151.600 50.558,151.306 50.488,151.016 50.471 C 150.726 50.455,150.488 50.423,150.488 50.402 C 150.488 50.380,150.269 50.322,150.000 50.274 C 149.173 50.125,144.885 49.381,143.750 49.190 C 143.159 49.090,142.500 48.977,142.285 48.940 C 142.070 48.903,141.191 48.762,140.332 48.627 C 139.473 48.492,138.682 48.318,138.574 48.241 C 138.467 48.164,138.181 48.117,137.939 48.139 C 137.698 48.160,137.500 48.102,137.500 48.010 C 137.500 47.919,137.267 47.886,136.981 47.938 C 136.696 47.990,136.366 47.972,136.249 47.898 C 136.131 47.825,135.947 47.751,135.840 47.733 C 135.732 47.716,134.854 47.561,133.887 47.389 C 132.920 47.218,131.514 46.978,130.762 46.857 C 130.010 46.737,129.331 46.625,129.253 46.610 C 129.109 46.582,130.166 44.839,130.608 44.376 C 132.220 42.686,133.102 35.872,132.155 32.422 C 131.423 29.755,129.292 26.189,127.689 24.948 C 127.338 24.677,126.774 24.204,126.435 23.897 C 126.096 23.590,125.086 22.998,124.189 22.581 C 123.292 22.163,122.339 21.712,122.070 21.577 C 120.876 20.978,116.239 20.454,115.137 20.794 M331.138 159.039 C 330.716 159.510,329.229 161.206,327.832 162.806 C 309.728 183.556,283.810 208.870,257.176 231.815 C 256.130 232.717,255.273 233.487,255.273 233.527 C 255.273 233.652,255.750 234.457,256.055 234.848 C 256.299 235.161,256.301 235.196,256.065 235.057 C 255.893 234.955,255.939 235.113,256.185 235.463 C 256.594 236.044,258.008 238.896,258.008 239.139 C 258.008 239.212,258.158 239.501,258.342 239.782 C 258.527 240.063,258.696 240.425,258.720 240.586 C 258.744 240.747,258.838 240.932,258.930 240.996 C 259.021 241.061,259.433 241.860,259.845 242.773 C 260.257 243.687,260.766 244.675,260.975 244.971 C 261.184 245.266,261.283 245.509,261.195 245.511 C 261.107 245.512,261.125 245.578,261.235 245.657 C 261.447 245.809,263.672 250.443,263.672 250.732 C 263.672 250.824,263.915 251.291,264.213 251.768 C 264.510 252.246,265.098 253.384,265.519 254.297 C 265.941 255.210,266.357 255.987,266.445 256.023 C 266.532 256.059,266.559 256.161,266.503 256.251 C 266.448 256.341,266.538 256.550,266.704 256.716 C 266.870 256.882,267.004 257.064,267.002 257.121 C 267.000 257.177,267.480 258.219,268.069 259.436 C 268.658 260.652,269.141 261.751,269.141 261.878 C 269.141 262.005,269.234 262.109,269.347 262.109 C 269.461 262.109,269.500 262.197,269.434 262.305 C 269.367 262.412,269.392 262.500,269.490 262.500 C 269.587 262.500,270.141 263.533,270.720 264.795 C 271.299 266.057,271.840 267.119,271.922 267.155 C 272.003 267.191,272.070 267.389,272.070 267.594 C 272.070 267.800,272.152 267.969,272.252 267.969 C 272.353 267.969,272.496 268.167,272.571 268.408 C 272.646 268.650,273.097 269.658,273.574 270.648 C 274.051 271.638,274.413 272.473,274.379 272.503 C 274.346 272.534,274.506 272.822,274.735 273.145 C 275.208 273.810,276.953 277.379,276.953 277.683 C 276.953 277.792,277.084 277.990,277.244 278.123 C 277.404 278.256,277.487 278.443,277.428 278.538 C 277.369 278.633,277.402 278.711,277.502 278.711 C 277.602 278.711,278.105 279.656,278.620 280.811 C 279.135 281.965,279.886 283.527,280.289 284.280 C 280.692 285.034,281.388 286.484,281.836 287.503 C 282.283 288.522,282.771 289.491,282.920 289.657 C 283.068 289.822,283.647 290.965,284.205 292.196 C 284.764 293.427,285.295 294.463,285.385 294.499 C 285.475 294.535,285.500 294.645,285.439 294.743 C 285.378 294.841,285.412 294.922,285.514 294.922 C 285.616 294.922,285.833 295.251,285.995 295.654 C 286.158 296.057,286.607 297.068,286.993 297.901 C 287.379 298.734,287.695 299.497,287.695 299.596 C 287.695 299.696,287.818 299.899,287.967 300.049 C 288.229 300.310,290.550 304.970,290.619 305.371 C 290.638 305.479,290.764 305.698,290.899 305.859 C 291.035 306.021,291.304 306.504,291.498 306.934 C 292.015 308.079,293.345 310.793,293.556 311.133 C 293.933 311.741,295.770 315.729,295.737 315.869 C 295.718 315.950,295.796 316.016,295.910 316.016 C 296.024 316.016,296.062 316.104,295.996 316.211 C 295.930 316.318,295.958 316.406,296.058 316.406 C 296.159 316.406,296.421 316.824,296.641 317.334 C 297.151 318.519,298.974 322.272,299.226 322.656 C 299.332 322.817,299.597 323.367,299.816 323.877 C 300.035 324.387,300.303 324.805,300.411 324.805 C 300.520 324.805,300.564 324.877,300.510 324.965 C 300.455 325.053,300.538 325.371,300.694 325.671 C 300.849 325.971,300.977 326.338,300.977 326.487 C 300.977 326.636,301.070 326.758,301.183 326.758 C 301.297 326.758,301.340 326.840,301.278 326.940 C 301.216 327.040,301.255 327.177,301.365 327.245 C 301.574 327.374,303.320 330.971,303.320 331.272 C 303.320 331.367,303.408 331.445,303.516 331.445 C 303.623 331.445,303.711 331.578,303.711 331.741 C 303.711 332.027,304.082 332.809,304.312 333.008 C 304.374 333.062,304.894 334.094,305.468 335.303 C 306.042 336.511,306.588 337.500,306.682 337.500 C 306.776 337.500,306.830 337.610,306.802 337.744 C 306.774 337.878,307.116 338.735,307.562 339.648 C 308.009 340.562,308.642 341.880,308.970 342.578 C 309.297 343.276,309.725 344.111,309.920 344.434 C 310.115 344.756,310.617 345.789,311.037 346.729 C 311.457 347.668,311.875 348.438,311.966 348.438 C 312.058 348.438,312.078 348.525,312.012 348.633 C 311.945 348.740,311.989 348.828,312.109 348.828 C 312.229 348.828,312.273 348.916,312.207 349.023 C 312.141 349.131,312.173 349.219,312.280 349.219 C 312.387 349.219,312.536 349.417,312.612 349.658 C 312.688 349.900,313.133 350.888,313.601 351.853 C 314.070 352.819,314.453 353.714,314.453 353.841 C 314.453 353.969,314.565 354.190,314.703 354.332 C 314.973 354.611,316.165 357.007,316.702 358.350 C 316.885 358.806,317.118 359.180,317.220 359.180 C 317.322 359.180,317.356 359.260,317.295 359.359 C 317.234 359.458,317.308 359.663,317.461 359.815 C 317.613 359.968,318.155 361.007,318.666 362.126 C 319.176 363.245,319.668 364.189,319.758 364.225 C 319.848 364.261,319.922 364.374,319.922 364.476 C 319.922 364.579,320.352 365.560,320.879 366.657 C 321.405 367.755,322.064 369.136,322.343 369.727 C 322.621 370.317,323.048 371.152,323.291 371.582 C 323.533 372.012,324.073 373.110,324.490 374.023 C 324.907 374.937,325.368 375.754,325.515 375.840 C 325.661 375.926,325.781 376.129,325.781 376.290 C 325.781 376.452,326.692 378.448,327.806 380.724 C 328.919 383.001,329.941 385.149,330.076 385.498 C 330.210 385.847,330.398 386.133,330.492 386.133 C 330.587 386.133,330.664 386.309,330.664 386.523 C 330.664 386.738,330.752 386.914,330.859 386.914 C 330.967 386.914,331.055 386.994,331.055 387.091 C 331.055 387.387,333.005 391.381,333.212 391.509 C 333.318 391.575,333.354 391.710,333.292 391.810 C 333.231 391.910,333.273 391.992,333.387 391.992 C 333.501 391.992,333.594 392.077,333.594 392.181 C 333.594 392.285,334.051 393.318,334.610 394.476 C 335.169 395.634,335.608 396.648,335.586 396.729 C 335.565 396.809,335.640 396.875,335.754 396.875 C 335.867 396.875,335.911 396.956,335.850 397.055 C 335.789 397.153,335.862 397.358,336.013 397.509 C 336.164 397.660,336.484 398.238,336.723 398.794 C 336.962 399.350,337.230 399.805,337.318 399.805 C 337.440 399.805,357.707 379.579,367.507 369.677 L 368.812 368.359 368.587 367.334 C 368.392 366.447,368.262 365.696,368.089 364.450 C 368.066 364.287,367.986 364.053,367.910 363.930 C 367.834 363.808,367.828 363.561,367.896 363.383 C 367.965 363.205,367.926 362.868,367.810 362.633 C 367.694 362.399,367.416 361.064,367.191 359.668 C 366.967 358.271,366.656 356.382,366.500 355.469 C 366.071 352.956,365.964 352.269,365.957 352.002 C 365.953 351.868,365.892 351.758,365.820 351.758 C 365.749 351.758,365.708 351.560,365.729 351.318 C 365.750 351.077,365.717 350.792,365.656 350.686 C 365.595 350.581,365.571 350.197,365.602 349.834 C 365.633 349.472,365.579 349.224,365.482 349.284 C 365.385 349.344,365.320 349.090,365.339 348.720 C 365.357 348.350,365.303 348.047,365.217 348.047 C 365.131 348.047,365.097 347.864,365.140 347.640 C 365.183 347.417,365.140 347.087,365.044 346.908 C 364.876 346.594,364.263 343.106,363.443 337.793 C 363.071 335.386,362.968 334.796,362.884 334.570 C 362.864 334.517,362.863 334.275,362.883 334.033 C 362.903 333.792,362.829 333.594,362.719 333.594 C 362.609 333.594,362.552 333.330,362.593 333.008 C 362.633 332.686,362.607 332.422,362.535 332.422 C 362.462 332.422,362.387 332.224,362.369 331.982 C 362.351 331.741,362.152 330.532,361.928 329.297 C 361.375 326.246,360.543 321.191,360.419 320.122 C 360.363 319.641,360.252 319.113,360.171 318.950 C 360.090 318.786,360.005 318.265,359.983 317.791 C 359.960 317.318,359.859 316.775,359.758 316.587 C 359.600 316.292,358.593 310.553,358.264 308.070 L 358.155 307.254 365.630 299.769 C 374.764 290.625,376.025 288.968,376.770 285.136 C 378.363 276.941,374.261 269.667,366.309 266.586 C 362.429 265.083,356.588 266.001,352.539 268.750 L 351.420 269.510 351.101 267.519 C 350.220 262.021,349.823 259.606,349.696 258.984 C 349.619 258.608,349.549 258.147,349.541 257.959 C 349.532 257.771,349.468 257.617,349.398 257.617 C 349.327 257.617,349.263 257.288,349.254 256.885 C 349.226 255.579,349.200 255.457,348.981 255.592 C 348.864 255.665,348.820 255.641,348.883 255.538 C 349.002 255.345,348.078 249.531,346.948 243.359 C 346.879 242.983,346.813 242.485,346.800 242.253 C 346.788 242.020,346.717 241.769,346.644 241.696 C 346.571 241.623,346.558 241.442,346.615 241.293 C 346.672 241.145,346.580 240.560,346.411 239.994 C 346.165 239.166,345.391 234.828,344.644 230.078 C 344.470 228.972,344.329 228.261,344.161 227.637 C 344.075 227.314,344.035 226.848,344.073 226.599 C 344.117 226.308,344.066 226.195,343.926 226.281 C 342.822 226.964,354.173 215.273,363.731 205.884 C 368.198 201.496,370.020 196.537,369.167 191.089 C 368.917 189.491,368.070 186.850,367.777 186.752 C 367.667 186.716,367.578 186.578,367.578 186.446 C 367.578 184.715,361.257 179.105,358.837 178.689 C 358.757 178.675,358.496 178.590,358.256 178.499 C 356.554 177.851,351.841 177.786,349.707 178.380 C 346.389 179.304,344.524 180.649,339.451 185.779 C 337.521 187.731,337.313 187.889,337.221 187.472 C 337.023 186.571,336.695 184.654,336.592 183.789 C 336.535 183.306,336.374 182.582,336.236 182.181 C 336.063 181.677,336.053 181.493,336.206 181.584 C 336.369 181.681,336.369 181.643,336.206 181.434 C 336.085 181.279,336.019 180.955,336.058 180.713 C 336.098 180.471,336.058 180.273,335.969 180.273 C 335.880 180.273,335.823 180.076,335.841 179.834 C 335.860 179.592,335.807 179.263,335.724 179.102 C 335.641 178.940,335.303 177.095,334.972 175.000 C 334.220 170.227,333.965 168.731,333.840 168.359 C 333.786 168.198,333.720 167.847,333.693 167.578 C 333.666 167.310,333.582 166.870,333.506 166.602 C 333.430 166.333,333.337 165.762,333.300 165.332 C 333.203 164.232,333.087 163.567,332.953 163.350 C 332.889 163.247,332.691 162.157,332.512 160.927 C 332.086 158.007,332.075 157.992,331.138 159.039 M11.565 268.018 C 7.703 271.898,7.450 272.248,7.450 273.714 C 7.450 275.393,7.292 275.187,13.184 281.166 C 15.332 283.346,20.825 288.920,25.391 293.554 C 29.956 298.187,37.163 305.486,41.406 309.774 C 45.649 314.061,49.918 318.404,50.891 319.425 L 52.662 321.280 53.105 320.552 C 53.348 320.152,54.382 318.242,55.401 316.309 C 56.421 314.375,57.789 311.826,58.442 310.645 C 61.295 305.482,64.674 299.455,66.218 296.777 C 66.837 295.703,67.717 294.165,68.174 293.359 C 70.338 289.543,74.629 282.139,76.210 279.492 C 78.414 275.802,80.078 272.926,80.078 272.805 C 80.078 272.746,79.353 272.634,78.467 272.557 C 77.581 272.480,76.757 272.339,76.638 272.242 C 76.518 272.145,76.100 272.107,75.710 272.157 C 75.305 272.209,75.000 272.164,75.000 272.052 C 75.000 271.934,74.688 271.903,74.219 271.973 C 73.777 272.038,73.437 272.009,73.438 271.905 C 73.438 271.804,73.240 271.725,72.998 271.730 C 72.756 271.735,71.812 271.642,70.898 271.524 C 69.985 271.405,68.755 271.259,68.164 271.200 C 64.161 270.794,56.345 269.873,55.371 269.692 C 54.727 269.572,53.803 269.461,53.318 269.445 C 52.834 269.430,52.337 269.355,52.215 269.279 C 52.092 269.204,51.786 269.146,51.533 269.151 C 50.993 269.162,49.599 269.030,48.633 268.878 C 47.992 268.777,47.350 268.709,44.580 268.450 C 43.962 268.392,42.886 268.263,42.188 268.164 C 41.489 268.065,40.391 267.932,39.746 267.868 C 37.340 267.632,36.564 267.545,34.277 267.252 C 30.708 266.795,30.625 266.786,29.736 266.741 C 29.280 266.718,28.906 266.633,28.906 266.551 C 28.906 266.470,28.474 266.428,27.945 266.459 C 27.417 266.489,27.019 266.458,27.061 266.389 C 27.104 266.320,26.328 266.202,25.337 266.127 C 23.149 265.962,22.817 265.928,18.479 265.432 C 16.588 265.216,14.925 265.039,14.785 265.039 C 14.644 265.039,13.195 266.379,11.565 268.018 M85.254 317.354 C 84.287 318.189,79.893 321.990,75.488 325.800 C 71.084 329.610,65.679 334.279,63.477 336.174 C 61.274 338.070,57.231 341.560,54.492 343.930 C 51.753 346.300,49.373 348.240,49.203 348.241 C 49.034 348.242,48.374 348.710,47.738 349.282 C 47.102 349.855,46.372 350.492,46.114 350.698 C 45.857 350.905,45.242 351.457,44.747 351.924 C 44.252 352.391,43.496 353.023,43.066 353.329 C 42.637 353.634,41.851 354.329,41.321 354.872 C 40.791 355.415,40.293 355.859,40.215 355.859 C 40.137 355.859,39.775 356.145,39.410 356.494 C 38.366 357.495,36.180 359.403,35.695 359.737 C 35.452 359.905,34.946 360.330,34.570 360.683 C 34.194 361.036,33.821 361.325,33.740 361.326 C 33.204 361.333,34.091 362.381,37.842 366.174 C 40.178 368.537,42.817 371.217,43.706 372.130 C 45.205 373.670,45.898 374.219,45.898 373.867 C 45.898 373.709,47.315 371.958,49.348 369.604 C 49.546 369.376,50.059 368.764,50.488 368.244 C 50.918 367.725,51.621 366.891,52.051 366.392 C 53.738 364.431,54.197 363.833,54.150 363.658 C 54.124 363.558,54.233 363.477,54.395 363.477 C 54.556 363.477,54.688 363.395,54.688 363.295 C 54.688 363.195,54.995 362.788,55.371 362.389 C 55.747 361.990,56.055 361.599,56.055 361.519 C 56.055 361.439,56.274 361.229,56.543 361.053 C 56.812 360.877,57.032 360.625,57.032 360.494 C 57.033 360.362,57.516 359.752,58.107 359.139 C 58.697 358.526,59.181 357.867,59.182 357.674 C 59.183 357.482,61.698 354.336,64.771 350.684 C 67.843 347.031,73.181 340.670,76.634 336.547 C 80.086 332.425,83.921 327.850,85.156 326.381 C 86.392 324.912,88.054 322.924,88.851 321.963 C 89.648 321.001,90.415 320.079,90.555 319.913 C 90.773 319.653,90.543 319.346,88.910 317.723 L 87.012 315.835 85.254 317.354 M129.935 326.821 C 124.249 330.618,109.194 340.244,101.953 344.713 C 99.303 346.349,97.583 347.411,94.130 349.543 C 93.104 350.176,90.845 351.527,89.110 352.545 C 87.375 353.562,85.954 354.482,85.951 354.590 C 85.948 354.697,89.290 358.081,93.376 362.109 C 97.463 366.138,107.463 376.073,115.598 384.189 C 132.671 401.219,131.316 400.000,133.174 400.000 C 134.743 400.000,134.635 400.063,137.170 397.656 C 141.496 393.548,141.993 392.988,141.894 392.326 C 141.567 390.134,141.427 388.865,141.367 387.549 C 141.346 387.092,141.275 386.719,141.210 386.719 C 141.144 386.719,141.080 386.345,141.068 385.889 C 141.056 385.432,140.909 384.004,140.742 382.715 C 140.575 381.426,140.259 378.657,140.040 376.563 C 139.821 374.468,139.594 372.421,139.537 372.015 C 139.452 371.412,139.216 369.399,138.802 365.723 C 138.778 365.508,138.681 365.209,138.587 365.058 C 138.460 364.853,138.486 364.826,138.691 364.949 C 138.905 365.078,138.919 365.053,138.752 364.832 C 138.635 364.678,138.557 364.287,138.579 363.965 C 138.601 363.643,138.573 363.298,138.516 363.199 C 138.458 363.099,138.391 362.792,138.365 362.515 C 138.339 362.238,138.225 361.309,138.111 360.449 C 137.997 359.590,137.679 356.821,137.406 354.297 C 136.793 348.641,136.714 347.930,136.605 347.070 C 136.557 346.694,136.465 345.903,136.400 345.313 C 136.258 344.013,136.177 343.457,136.131 343.457 C 136.103 343.457,135.988 341.900,135.922 340.625 C 135.914 340.464,135.833 340.156,135.742 339.941 C 135.651 339.727,135.218 336.281,134.778 332.285 C 133.999 325.200,133.881 324.398,133.622 324.429 C 133.553 324.437,131.894 325.514,129.935 326.821 " stroke="none" fill="#72b9e0" fill-rule="evenodd"></path><path id="path1" d="M364.648 0.207 C 363.950 0.288,362.148 0.493,360.645 0.661 C 354.030 1.403,349.929 2.132,343.164 3.771 C 338.217 4.969,336.328 5.500,336.328 5.695 C 336.328 5.785,336.182 5.859,336.004 5.859 C 335.517 5.859,328.753 7.994,327.947 8.402 C 327.562 8.597,325.974 9.208,324.419 9.759 C 322.865 10.311,321.546 10.828,321.490 10.907 C 321.433 10.987,320.200 11.521,318.750 12.095 C 317.300 12.668,315.836 13.294,315.496 13.486 C 315.157 13.677,313.750 14.337,312.371 14.952 C 310.992 15.567,309.775 16.138,309.668 16.222 C 309.561 16.305,308.374 16.918,307.031 17.585 C 305.688 18.251,304.546 18.852,304.492 18.920 C 304.438 18.987,303.348 19.570,302.068 20.215 C 300.788 20.859,299.646 21.480,299.529 21.594 C 299.412 21.707,299.053 21.936,298.730 22.102 C 296.940 23.022,294.995 24.130,294.824 24.327 C 294.717 24.451,293.926 24.924,293.066 25.379 C 292.207 25.834,290.889 26.621,290.137 27.128 C 289.385 27.635,288.242 28.343,287.598 28.702 C 286.954 29.061,286.338 29.457,286.231 29.582 C 286.123 29.707,285.244 30.283,284.277 30.863 C 283.311 31.443,282.036 32.294,281.445 32.755 C 280.854 33.216,280.274 33.594,280.155 33.594 C 280.037 33.594,279.707 33.809,279.423 34.073 C 279.139 34.336,278.903 34.490,278.900 34.415 C 278.897 34.339,278.787 34.413,278.656 34.580 C 278.525 34.746,277.627 35.393,276.660 36.016 C 275.693 36.639,274.683 37.349,274.414 37.594 C 274.146 37.838,273.354 38.417,272.656 38.882 C 271.958 39.346,271.167 39.938,270.899 40.197 C 270.630 40.457,269.839 41.040,269.141 41.493 C 268.442 41.947,267.651 42.508,267.383 42.741 C 267.114 42.973,266.119 43.757,265.172 44.482 C 262.571 46.474,261.320 47.455,259.943 48.584 C 259.254 49.148,258.481 49.764,258.225 49.951 C 257.968 50.139,257.572 50.470,257.346 50.687 C 257.119 50.903,256.436 51.457,255.828 51.918 C 255.220 52.378,254.511 52.948,254.254 53.184 C 253.996 53.420,253.382 53.942,252.889 54.343 C 252.395 54.744,251.634 55.403,251.196 55.808 C 250.758 56.212,249.904 56.938,249.299 57.422 C 248.695 57.905,247.919 58.564,247.575 58.887 C 246.213 60.165,245.324 60.937,245.216 60.938 C 245.153 60.938,244.768 61.267,244.360 61.670 C 243.952 62.073,242.682 63.237,241.539 64.258 C 240.395 65.278,239.458 66.203,239.456 66.313 C 239.455 66.423,238.159 67.698,236.578 69.145 C 222.230 82.283,204.189 101.238,188.066 120.117 C 183.802 125.109,179.246 130.531,178.118 131.956 C 177.853 132.290,175.966 134.619,173.923 137.131 C 171.881 139.644,169.741 142.294,169.167 143.021 C 168.594 143.748,167.972 144.425,167.785 144.525 C 167.598 144.625,167.058 145.217,166.584 145.840 C 166.110 146.463,165.623 147.061,165.502 147.168 C 165.380 147.275,164.788 148.039,164.185 148.864 C 163.582 149.690,163.007 150.416,162.907 150.478 C 162.806 150.540,162.232 151.271,161.630 152.102 C 161.029 152.933,159.881 154.448,159.080 155.469 C 158.278 156.489,157.080 158.071,156.416 158.984 C 155.753 159.897,155.102 160.732,154.970 160.840 C 154.838 160.947,154.268 161.694,153.703 162.500 C 153.139 163.306,152.448 164.234,152.168 164.564 C 151.678 165.143,149.911 167.519,149.512 168.138 C 149.404 168.304,149.203 168.563,149.065 168.714 C 148.927 168.864,148.450 169.527,148.005 170.187 C 147.559 170.847,147.121 171.417,147.030 171.454 C 146.939 171.490,146.380 172.237,145.788 173.114 C 145.195 173.990,144.428 175.070,144.084 175.514 C 143.739 175.957,142.773 177.275,141.937 178.443 C 141.101 179.611,140.002 181.135,139.496 181.829 C 137.632 184.382,133.798 189.800,132.472 191.753 C 131.909 192.583,131.296 193.438,131.111 193.652 C 130.925 193.867,130.253 194.834,129.619 195.801 C 128.984 196.768,128.399 197.603,128.319 197.656 C 128.240 197.710,127.671 198.545,127.055 199.512 C 126.439 200.479,125.821 201.361,125.681 201.473 C 125.541 201.585,125.177 202.085,124.872 202.585 C 123.859 204.240,120.439 209.275,120.227 209.421 C 120.100 209.509,120.095 209.567,120.215 209.570 C 120.323 209.574,120.311 209.640,120.188 209.720 C 120.066 209.799,119.038 211.270,117.903 212.988 C 116.768 214.707,115.594 216.458,115.293 216.880 C 114.992 217.302,114.307 218.327,113.770 219.159 C 113.232 219.991,112.354 221.329,111.816 222.133 C 111.279 222.936,110.596 223.976,110.298 224.443 C 110.001 224.911,109.575 225.557,109.352 225.879 C 108.558 227.026,106.916 229.578,105.762 231.457 C 105.117 232.507,104.450 233.527,104.278 233.724 C 104.107 233.921,103.495 234.873,102.919 235.840 C 102.343 236.807,101.726 237.755,101.548 237.948 C 101.370 238.141,100.980 238.756,100.681 239.315 C 100.383 239.874,99.839 240.756,99.474 241.273 C 99.108 241.791,98.278 243.109,97.629 244.203 C 96.980 245.296,96.383 246.235,96.303 246.289 C 96.223 246.343,95.780 247.046,95.317 247.852 C 94.855 248.657,94.199 249.712,93.859 250.195 C 93.520 250.679,92.783 251.865,92.221 252.832 C 91.659 253.799,91.035 254.810,90.833 255.078 C 90.478 255.551,89.345 257.419,87.109 261.220 C 86.519 262.224,85.894 263.209,85.721 263.408 C 85.549 263.607,84.909 264.667,84.299 265.764 C 83.688 266.861,83.116 267.804,83.028 267.859 C 82.939 267.914,82.308 268.972,81.627 270.210 C 80.945 271.448,80.320 272.461,80.239 272.461 C 80.157 272.461,80.137 272.582,80.193 272.730 C 80.250 272.877,79.649 274.086,78.857 275.415 C 70.638 289.214,61.231 305.771,55.679 316.211 C 53.540 320.233,52.931 321.289,52.751 321.289 C 52.623 321.289,51.858 322.841,50.874 325.098 C 50.542 325.858,49.327 330.848,48.924 333.105 C 48.751 334.072,48.482 335.500,48.327 336.278 C 48.062 337.605,47.960 340.795,48.099 343.457 C 48.180 345.008,49.010 348.081,49.328 348.006 C 49.526 347.959,57.581 341.094,61.425 337.695 C 61.972 337.212,65.221 334.399,68.645 331.445 C 72.069 328.491,76.240 324.892,77.914 323.448 C 83.417 318.699,86.424 316.117,86.731 315.877 C 86.986 315.677,87.349 315.956,89.035 317.648 L 91.036 319.656 84.727 327.185 C 81.257 331.326,76.880 336.549,75.000 338.792 C 73.120 341.036,68.836 346.142,65.479 350.140 C 62.122 354.138,59.375 357.491,59.375 357.591 C 59.375 357.692,59.792 357.867,60.303 357.981 C 66.925 359.461,79.438 358.113,84.623 355.360 C 85.349 354.974,85.898 354.586,85.843 354.497 C 85.788 354.408,86.599 353.832,87.647 353.217 C 89.484 352.138,90.246 351.677,95.117 348.692 C 105.639 342.246,114.115 336.891,125.157 329.715 C 129.808 326.692,133.720 324.216,133.848 324.213 C 133.977 324.210,134.662 323.837,135.370 323.383 C 139.220 320.919,140.328 320.182,140.655 319.873 C 140.853 319.685,141.046 319.531,141.082 319.531 C 141.119 319.531,141.932 318.998,142.889 318.347 C 143.846 317.695,145.508 316.585,146.582 315.880 C 147.656 315.174,148.579 314.541,148.633 314.473 C 148.687 314.405,149.478 313.870,150.391 313.284 C 151.304 312.698,152.390 311.936,152.804 311.591 C 153.218 311.245,153.859 310.819,154.229 310.644 C 154.598 310.468,155.379 309.935,155.963 309.459 C 156.548 308.983,157.068 308.594,157.119 308.594 C 157.170 308.594,157.984 308.049,158.928 307.382 C 161.322 305.692,163.837 303.957,166.016 302.491 C 167.036 301.805,168.003 301.114,168.164 300.957 C 168.325 300.799,169.116 300.238,169.922 299.710 C 170.728 299.182,171.431 298.690,171.484 298.617 C 171.538 298.544,172.391 297.924,173.379 297.240 C 174.367 296.556,176.431 295.073,177.966 293.945 C 179.501 292.817,181.153 291.642,181.638 291.334 C 182.123 291.026,182.548 290.700,182.582 290.609 C 182.617 290.519,182.968 290.247,183.363 290.005 C 183.986 289.625,186.351 287.918,189.540 285.547 C 190.046 285.171,190.871 284.573,191.372 284.219 C 191.874 283.864,192.725 283.223,193.262 282.793 C 193.799 282.364,194.992 281.467,195.913 280.801 C 199.381 278.293,200.118 277.744,200.857 277.115 C 201.275 276.759,202.065 276.173,202.613 275.812 C 203.161 275.452,203.918 274.893,204.295 274.571 C 204.929 274.031,205.738 273.417,209.267 270.801 C 209.992 270.264,210.950 269.508,211.396 269.121 C 211.842 268.734,212.690 268.080,213.281 267.669 C 213.871 267.258,214.575 266.718,214.843 266.469 C 215.112 266.221,215.954 265.555,216.714 264.991 C 217.474 264.427,218.441 263.681,218.863 263.333 C 219.284 262.986,220.126 262.327,220.734 261.868 C 222.782 260.325,223.854 259.477,224.771 258.675 C 225.273 258.236,226.079 257.605,226.563 257.273 C 227.046 256.941,227.801 256.333,228.241 255.922 C 228.681 255.512,229.292 255.000,229.600 254.785 C 230.219 254.354,231.346 253.456,233.662 251.553 C 234.505 250.860,235.691 249.912,236.298 249.446 C 236.906 248.981,237.754 248.270,238.184 247.868 C 238.613 247.465,239.404 246.821,239.941 246.437 C 240.479 246.053,241.138 245.499,241.406 245.207 C 241.675 244.914,242.133 244.526,242.425 244.345 C 242.717 244.164,243.420 243.612,243.988 243.118 C 244.555 242.624,245.591 241.755,246.289 241.187 C 246.987 240.620,247.959 239.800,248.449 239.365 C 248.938 238.930,250.169 237.871,251.183 237.012 C 252.197 236.152,253.057 235.383,253.092 235.303 C 253.128 235.222,253.240 235.156,253.341 235.156 C 253.442 235.156,254.291 234.385,255.229 233.443 C 256.166 232.501,258.908 230.018,261.322 227.926 C 281.722 210.239,302.252 190.452,318.668 172.654 C 324.143 166.719,329.663 160.550,331.104 158.757 C 331.435 158.345,331.801 158.006,331.917 158.003 C 332.163 157.998,333.765 156.224,334.869 154.736 C 335.288 154.172,335.692 153.711,335.767 153.711 C 335.843 153.711,336.241 153.250,336.653 152.686 C 337.064 152.122,337.841 151.165,338.378 150.559 C 338.916 149.953,339.971 148.684,340.723 147.738 C 341.475 146.792,342.533 145.486,343.075 144.835 C 343.617 144.185,344.449 143.125,344.924 142.480 C 345.398 141.836,346.098 140.950,346.477 140.513 C 346.857 140.075,347.607 139.120,348.145 138.392 C 348.682 137.663,349.571 136.456,350.120 135.710 C 350.670 134.964,351.351 134.112,351.634 133.816 C 351.917 133.521,352.148 133.182,352.148 133.062 C 352.148 132.943,352.223 132.816,352.313 132.780 C 352.404 132.744,352.851 132.166,353.306 131.496 C 353.761 130.825,354.219 130.224,354.323 130.159 C 354.428 130.095,354.981 129.316,355.554 128.429 C 356.126 127.542,356.763 126.649,356.971 126.445 C 357.178 126.241,357.644 125.591,358.006 125.000 C 358.368 124.409,358.957 123.559,359.313 123.112 C 359.669 122.664,359.961 122.202,359.961 122.086 C 359.961 121.970,360.027 121.875,360.109 121.875 C 360.190 121.875,360.695 121.172,361.230 120.313 C 361.766 119.453,362.262 118.750,362.334 118.750 C 362.405 118.750,362.727 118.282,363.049 117.711 C 363.372 117.139,364.281 115.695,365.070 114.502 C 366.739 111.977,367.230 111.203,368.932 108.409 C 369.623 107.275,370.308 106.228,370.454 106.081 C 370.601 105.934,370.992 105.275,371.324 104.616 C 371.656 103.957,372.224 102.955,372.585 102.389 C 372.946 101.823,373.242 101.281,373.242 101.184 C 373.242 101.088,373.319 100.980,373.414 100.944 C 373.508 100.908,373.959 100.133,374.416 99.221 C 374.873 98.309,375.445 97.298,375.688 96.975 C 376.120 96.400,377.117 94.525,379.688 89.450 C 380.386 88.071,381.056 86.827,381.176 86.685 C 381.297 86.542,381.813 85.459,382.323 84.277 C 382.833 83.096,383.452 81.777,383.699 81.348 C 383.945 80.918,384.599 79.479,385.152 78.149 C 385.704 76.820,386.278 75.545,386.426 75.317 C 386.575 75.089,387.148 73.716,387.699 72.266 C 388.251 70.815,388.819 69.446,388.963 69.222 C 389.107 68.998,389.711 67.397,390.306 65.665 C 390.902 63.932,391.516 62.269,391.671 61.969 C 391.826 61.669,392.458 59.710,393.075 57.616 C 393.692 55.522,394.266 53.719,394.350 53.610 C 394.529 53.378,395.646 48.969,396.377 45.605 C 396.658 44.316,396.971 43.086,397.074 42.871 C 397.439 42.107,398.626 34.935,399.326 29.257 C 399.489 27.936,399.706 26.223,399.809 25.451 C 400.056 23.592,399.965 19.545,399.666 19.043 C 399.537 18.828,399.200 17.642,398.916 16.406 C 396.620 6.429,393.368 3.275,383.008 0.980 C 381.987 0.754,380.977 0.463,380.762 0.333 C 380.311 0.061,366.809 -0.044,364.648 0.207 M338.408 18.948 C 359.436 22.519,376.228 39.827,380.771 62.611 L 381.124 64.383 380.242 66.029 C 379.757 66.935,378.141 69.873,376.652 72.559 C 375.163 75.244,373.369 78.490,372.666 79.771 C 371.112 82.600,371.062 82.623,370.618 80.717 C 364.855 55.989,344.343 35.208,319.722 29.155 C 317.322 28.564,317.176 28.396,318.506 27.757 C 319.016 27.511,320.488 26.714,321.777 25.986 C 323.891 24.792,325.731 23.771,331.934 20.353 C 333.008 19.761,334.150 19.121,334.473 18.932 C 335.242 18.479,335.659 18.481,338.408 18.948 " stroke="none" fill="#a4d4ec" fill-rule="evenodd"></path><path id="path2" d="M238.884 66.871 L 238.412 67.480 238.971 66.949 C 239.279 66.657,239.491 66.383,239.443 66.340 C 239.395 66.297,239.143 66.536,238.884 66.871 M236.708 68.896 L 236.035 69.629 236.768 68.956 C 237.170 68.586,237.500 68.256,237.500 68.223 C 237.500 68.074,237.335 68.215,236.708 68.896 M234.270 71.143 L 233.301 72.168 234.326 71.199 C 234.890 70.666,235.352 70.204,235.352 70.173 C 235.352 70.028,235.171 70.190,234.270 71.143 M230.074 75.146 L 228.418 76.855 230.127 75.200 C 231.067 74.289,231.836 73.520,231.836 73.491 C 231.836 73.349,231.612 73.559,230.074 75.146 M223.142 81.885 L 220.020 85.059 223.193 81.936 C 226.142 79.035,226.456 78.711,226.316 78.711 C 226.288 78.711,224.860 80.139,223.142 81.885 M214.644 90.576 L 212.988 92.285 214.697 90.629 C 216.285 89.091,216.495 88.867,216.353 88.867 C 216.324 88.867,215.555 89.636,214.644 90.576 M210.437 94.971 L 209.863 95.605 210.498 95.032 C 211.090 94.497,211.223 94.336,211.072 94.336 C 211.038 94.336,210.752 94.622,210.437 94.971 M207.898 97.705 L 207.324 98.340 207.959 97.766 C 208.308 97.451,208.594 97.165,208.594 97.131 C 208.594 96.981,208.433 97.113,207.898 97.705 M205.359 100.439 L 204.785 101.074 205.420 100.501 C 206.012 99.966,206.144 99.805,205.994 99.805 C 205.960 99.805,205.674 100.090,205.359 100.439 M201.453 104.736 L 200.879 105.371 201.514 104.797 C 202.105 104.263,202.238 104.102,202.087 104.102 C 202.054 104.102,201.768 104.387,201.453 104.736 M320.888 170.264 L 320.215 170.996 320.947 170.323 C 321.629 169.697,321.769 169.531,321.620 169.531 C 321.588 169.531,321.258 169.861,320.888 170.264 M318.448 172.900 L 317.676 173.730 318.506 172.958 C 319.278 172.240,319.426 172.070,319.278 172.070 C 319.246 172.070,318.872 172.444,318.448 172.900 M316.104 175.439 L 315.332 176.270 316.162 175.497 C 316.934 174.779,317.082 174.609,316.934 174.609 C 316.902 174.609,316.529 174.983,316.104 175.439 M313.177 178.564 L 312.012 179.785 313.232 178.619 C 313.904 177.978,314.453 177.429,314.453 177.399 C 314.453 177.254,314.260 177.431,313.177 178.564 M308.785 183.154 L 306.934 185.059 308.838 183.207 C 310.607 181.487,310.831 181.250,310.690 181.250 C 310.661 181.250,309.804 182.107,308.785 183.154 M293.648 198.291 L 292.090 199.902 293.701 198.344 C 295.198 196.897,295.402 196.680,295.259 196.680 C 295.230 196.680,294.505 197.405,293.648 198.291 M288.867 202.832 C 288.067 203.638,287.456 204.297,287.510 204.297 C 287.563 204.297,288.262 203.638,289.063 202.832 C 289.863 202.026,290.474 201.367,290.420 201.367 C 290.366 201.367,289.667 202.026,288.867 202.832 M285.150 206.396 L 284.082 207.520 285.205 206.452 C 285.823 205.865,286.328 205.359,286.328 205.329 C 286.328 205.184,286.141 205.353,285.150 206.396 M282.031 209.277 C 281.557 209.761,281.213 210.156,281.266 210.156 C 281.320 210.156,281.752 209.761,282.227 209.277 C 282.701 208.794,283.045 208.398,282.991 208.398 C 282.938 208.398,282.506 208.794,282.031 209.277 M279.190 211.963 L 278.418 212.793 279.248 212.021 C 280.020 211.303,280.168 211.133,280.020 211.133 C 279.988 211.133,279.615 211.506,279.190 211.963 M276.648 214.307 L 276.074 214.941 276.709 214.368 C 277.301 213.833,277.434 213.672,277.283 213.672 C 277.249 213.672,276.963 213.958,276.648 214.307 M89.844 318.652 C 90.427 319.243,90.949 319.727,91.002 319.727 C 91.056 319.727,90.623 319.243,90.039 318.652 C 89.456 318.062,88.934 317.578,88.881 317.578 C 88.827 317.578,89.260 318.062,89.844 318.652 " stroke="none" fill="#87c3e0" fill-rule="evenodd"></path><path id="path3" d="M10.337 49.545 L 9.863 50.066 10.394 49.691 C 10.686 49.485,10.928 49.250,10.931 49.170 C 10.941 48.929,10.834 48.997,10.337 49.545 M8.484 51.522 C 7.941 52.028,7.369 52.614,7.215 52.824 C 7.060 53.035,7.527 52.640,8.252 51.947 C 9.450 50.801,9.668 50.569,9.521 50.594 C 9.495 50.599,9.028 51.017,8.484 51.522 M3.406 56.689 L 2.832 57.324 3.467 56.751 C 3.816 56.435,4.102 56.149,4.102 56.116 C 4.102 55.965,3.940 56.098,3.406 56.689 M238.281 67.285 C 237.807 67.769,237.463 68.164,237.516 68.164 C 237.570 68.164,238.002 67.769,238.477 67.285 C 238.951 66.802,239.295 66.406,239.241 66.406 C 239.188 66.406,238.756 66.802,238.281 67.285 M236.026 69.385 L 235.254 70.215 236.084 69.443 C 236.856 68.725,237.004 68.555,236.856 68.555 C 236.824 68.555,236.451 68.928,236.026 69.385 M233.100 72.119 L 231.738 73.535 233.154 72.173 C 234.469 70.908,234.660 70.703,234.516 70.703 C 234.487 70.703,233.849 71.340,233.100 72.119 M228.218 76.807 L 226.660 78.418 228.271 76.860 C 229.158 76.003,229.883 75.278,229.883 75.249 C 229.883 75.106,229.665 75.310,228.218 76.807 M216.895 88.086 C 215.609 89.375,214.601 90.430,214.655 90.430 C 214.708 90.430,215.804 89.375,217.090 88.086 C 218.376 86.797,219.384 85.742,219.330 85.742 C 219.276 85.742,218.180 86.797,216.895 88.086 M211.523 93.652 C 210.723 94.458,210.112 95.117,210.166 95.117 C 210.220 95.117,210.918 94.458,211.719 93.652 C 212.519 92.847,213.130 92.188,213.076 92.188 C 213.022 92.188,212.324 92.847,211.523 93.652 M208.685 96.729 L 207.520 97.949 208.740 96.783 C 209.874 95.701,210.050 95.508,209.906 95.508 C 209.876 95.508,209.326 96.057,208.685 96.729 M206.243 99.365 L 205.176 100.488 206.299 99.421 C 206.917 98.834,207.422 98.328,207.422 98.298 C 207.422 98.153,207.235 98.322,206.243 99.365 M203.995 101.807 L 203.223 102.637 204.053 101.865 C 204.825 101.147,204.973 100.977,204.825 100.977 C 204.793 100.977,204.419 101.350,203.995 101.807 M202.042 103.955 L 201.270 104.785 202.100 104.013 C 202.556 103.588,202.930 103.215,202.930 103.183 C 202.930 103.035,202.760 103.183,202.042 103.955 M200.088 106.104 L 199.316 106.934 200.146 106.162 C 200.603 105.737,200.977 105.363,200.977 105.331 C 200.977 105.184,200.806 105.332,200.088 106.104 M198.526 107.861 L 197.754 108.691 198.584 107.919 C 199.356 107.201,199.504 107.031,199.356 107.031 C 199.324 107.031,198.951 107.405,198.526 107.861 M196.864 109.717 L 196.191 110.449 196.924 109.776 C 197.327 109.406,197.656 109.076,197.656 109.044 C 197.656 108.895,197.491 109.035,196.864 109.717 M195.398 111.377 L 194.824 112.012 195.459 111.438 C 195.808 111.123,196.094 110.837,196.094 110.803 C 196.094 110.652,195.933 110.785,195.398 111.377 M193.935 113.037 L 193.262 113.770 193.994 113.096 C 194.676 112.470,194.816 112.305,194.667 112.305 C 194.635 112.305,194.305 112.634,193.935 113.037 M191.101 116.260 L 190.527 116.895 191.162 116.321 C 191.511 116.005,191.797 115.720,191.797 115.686 C 191.797 115.535,191.636 115.668,191.101 116.260 M172.732 138.223 C 172.318 138.729,172.081 139.079,172.206 139.002 C 172.471 138.838,173.708 137.305,173.575 137.305 C 173.525 137.305,173.146 137.718,172.732 138.223 M328.799 161.572 L 328.027 162.402 328.857 161.630 C 329.629 160.912,329.777 160.742,329.629 160.742 C 329.598 160.742,329.224 161.116,328.799 161.572 M325.771 164.990 L 325.098 165.723 325.830 165.050 C 326.512 164.423,326.652 164.258,326.503 164.258 C 326.471 164.258,326.141 164.587,325.771 164.990 M324.114 166.846 L 323.145 167.871 324.170 166.902 C 324.734 166.369,325.195 165.907,325.195 165.876 C 325.195 165.731,325.014 165.893,324.114 166.846 M322.354 168.799 L 321.582 169.629 322.412 168.857 C 322.869 168.432,323.242 168.059,323.242 168.027 C 323.242 167.879,323.072 168.027,322.354 168.799 M320.117 171.191 C 319.643 171.675,319.299 172.070,319.352 172.070 C 319.406 172.070,319.838 171.675,320.313 171.191 C 320.787 170.708,321.131 170.313,321.077 170.313 C 321.024 170.313,320.592 170.708,320.117 171.191 M317.773 173.730 C 317.299 174.214,316.955 174.609,317.009 174.609 C 317.062 174.609,317.494 174.214,317.969 173.730 C 318.443 173.247,318.787 172.852,318.734 172.852 C 318.680 172.852,318.248 173.247,317.773 173.730 M315.234 176.465 C 314.760 176.948,314.416 177.344,314.469 177.344 C 314.523 177.344,314.955 176.948,315.430 176.465 C 315.904 175.981,316.248 175.586,316.195 175.586 C 316.141 175.586,315.709 175.981,315.234 176.465 M312.006 179.932 L 310.645 181.348 312.061 179.986 C 313.376 178.721,313.566 178.516,313.422 178.516 C 313.393 178.516,312.756 179.153,312.006 179.932 M306.247 185.889 L 303.809 188.379 306.299 185.940 C 308.612 183.675,308.878 183.398,308.737 183.398 C 308.709 183.398,307.588 184.519,306.247 185.889 M298.338 193.799 L 293.652 198.535 298.389 193.849 C 300.994 191.272,303.125 189.141,303.125 189.113 C 303.125 188.974,302.693 189.398,298.338 193.799 M290.523 201.416 L 288.965 203.027 290.576 201.469 C 292.073 200.022,292.277 199.805,292.134 199.805 C 292.105 199.805,291.380 200.530,290.523 201.416 M286.224 205.518 L 285.059 206.738 286.279 205.573 C 287.413 204.490,287.589 204.297,287.445 204.297 C 287.415 204.297,286.866 204.846,286.224 205.518 M283.001 208.545 L 281.934 209.668 283.057 208.600 C 283.674 208.013,284.180 207.508,284.180 207.477 C 284.180 207.332,283.993 207.502,283.001 208.545 M280.168 211.182 L 279.199 212.207 280.225 211.238 C 281.177 210.337,281.340 210.156,281.194 210.156 C 281.163 210.156,280.702 210.618,280.168 211.182 M277.628 213.525 L 276.855 214.355 277.686 213.583 C 278.458 212.865,278.605 212.695,278.458 212.695 C 278.426 212.695,278.052 213.069,277.628 213.525 M275.284 215.674 L 274.512 216.504 275.342 215.732 C 276.114 215.014,276.262 214.844,276.114 214.844 C 276.082 214.844,275.708 215.217,275.284 215.674 M273.242 217.480 C 272.768 217.964,272.424 218.359,272.477 218.359 C 272.531 218.359,272.963 217.964,273.438 217.480 C 273.912 216.997,274.256 216.602,274.202 216.602 C 274.149 216.602,273.717 216.997,273.242 217.480 M271.182 219.385 L 270.410 220.215 271.240 219.443 C 272.012 218.725,272.160 218.555,272.012 218.555 C 271.980 218.555,271.607 218.928,271.182 219.385 M269.421 220.947 L 268.848 221.582 269.482 221.008 C 270.074 220.474,270.207 220.313,270.056 220.313 C 270.022 220.313,269.737 220.598,269.421 220.947 M267.568 222.607 L 266.895 223.340 267.627 222.667 C 268.309 222.040,268.449 221.875,268.300 221.875 C 268.267 221.875,267.938 222.205,267.568 222.607 M265.710 224.268 L 265.137 224.902 265.771 224.329 C 266.363 223.794,266.496 223.633,266.345 223.633 C 266.312 223.633,266.026 223.918,265.710 224.268 M259.460 229.736 L 258.887 230.371 259.521 229.797 C 260.113 229.263,260.246 229.102,260.095 229.102 C 260.062 229.102,259.776 229.387,259.460 229.736 M15.399 283.512 C 15.615 283.941,16.211 284.514,16.211 284.293 C 16.211 284.221,15.982 283.925,15.702 283.634 C 15.310 283.227,15.241 283.199,15.399 283.512 M68.457 292.773 C 68.290 293.096,68.198 293.359,68.252 293.359 C 68.305 293.359,68.486 293.096,68.652 292.773 C 68.819 292.451,68.911 292.188,68.858 292.188 C 68.804 292.188,68.624 292.451,68.457 292.773 M27.344 295.569 C 27.344 295.603,27.629 295.888,27.979 296.204 L 28.613 296.777 28.040 296.143 C 27.505 295.551,27.344 295.418,27.344 295.569 M31.626 300.065 C 32.123 300.612,32.231 300.680,32.220 300.439 C 32.217 300.359,31.975 300.124,31.683 299.918 L 31.152 299.543 31.626 300.065 M60.645 306.641 C 60.478 306.963,60.385 307.227,60.439 307.227 C 60.493 307.227,60.673 306.963,60.840 306.641 C 61.006 306.318,61.099 306.055,61.045 306.055 C 60.991 306.055,60.811 306.318,60.645 306.641 M47.558 316.180 C 47.771 316.432,48.122 316.728,48.338 316.839 C 48.752 317.051,48.692 316.986,47.755 316.208 C 47.191 315.740,47.184 315.739,47.558 316.180 M87.882 316.650 C 88.361 317.161,88.779 317.578,88.810 317.578 C 88.957 317.578,88.802 317.403,87.939 316.593 L 87.012 315.723 87.882 316.650 M54.980 316.992 C 54.814 317.314,54.721 317.578,54.775 317.578 C 54.829 317.578,55.009 317.314,55.176 316.992 C 55.342 316.670,55.435 316.406,55.381 316.406 C 55.327 316.406,55.147 316.670,54.980 316.992 M85.046 317.432 L 84.473 318.066 85.107 317.493 C 85.699 316.958,85.832 316.797,85.681 316.797 C 85.647 316.797,85.362 317.083,85.046 317.432 M75.085 326.025 L 74.512 326.660 75.146 326.087 C 75.738 325.552,75.871 325.391,75.720 325.391 C 75.687 325.391,75.401 325.676,75.085 326.025 M72.156 328.564 L 71.582 329.199 72.217 328.626 C 72.566 328.310,72.852 328.024,72.852 327.991 C 72.852 327.840,72.690 327.973,72.156 328.564 M126.807 328.733 C 126.141 329.160,125.925 329.446,126.514 329.123 C 126.962 328.876,127.664 328.334,127.539 328.330 C 127.485 328.328,127.156 328.510,126.807 328.733 M69.226 331.104 L 68.652 331.738 69.287 331.165 C 69.879 330.630,70.012 330.469,69.861 330.469 C 69.827 330.469,69.542 330.754,69.226 331.104 M114.697 336.546 C 114.032 336.972,113.816 337.259,114.404 336.935 C 114.852 336.689,115.554 336.146,115.430 336.142 C 115.376 336.141,115.046 336.322,114.697 336.546 M56.335 342.236 L 55.762 342.871 56.396 342.297 C 56.988 341.763,57.121 341.602,56.970 341.602 C 56.937 341.602,56.651 341.887,56.335 342.236 M94.132 362.939 C 94.611 363.450,95.029 363.867,95.060 363.867 C 95.207 363.867,95.052 363.692,94.189 362.882 L 93.262 362.012 94.132 362.939 M96.973 365.820 C 97.502 366.357,97.978 366.797,98.032 366.797 C 98.086 366.797,97.697 366.357,97.168 365.820 C 96.639 365.283,96.162 364.844,96.108 364.844 C 96.055 364.844,96.444 365.283,96.973 365.820 M39.648 368.142 C 39.648 368.237,39.890 368.469,40.186 368.658 L 40.723 369.002 40.249 368.485 C 39.737 367.927,39.648 367.876,39.648 368.142 M368.167 368.936 C 367.900 369.141,367.731 369.359,367.792 369.419 C 367.852 369.480,368.108 369.310,368.360 369.042 C 368.905 368.462,368.834 368.424,368.167 368.936 M101.172 370.020 C 101.536 370.396,101.901 370.703,101.982 370.703 C 102.063 370.703,101.812 370.396,101.425 370.020 C 101.038 369.644,100.674 369.336,100.615 369.336 C 100.557 369.336,100.807 369.644,101.172 370.020 M104.002 372.850 C 104.310 373.171,104.604 373.391,104.655 373.340 C 104.756 373.238,103.771 372.266,103.567 372.266 C 103.498 372.266,103.694 372.528,104.002 372.850 M106.347 375.194 C 106.413 375.301,106.660 375.488,106.896 375.609 L 107.324 375.829 106.893 375.415 C 106.443 374.982,106.140 374.860,106.347 375.194 M117.871 386.523 C 118.291 386.953,118.678 387.305,118.732 387.305 C 118.785 387.305,118.486 386.953,118.066 386.523 C 117.647 386.094,117.260 385.742,117.206 385.742 C 117.152 385.742,117.452 386.094,117.871 386.523 M136.035 398.753 C 135.605 399.134,135.430 399.358,135.645 399.252 C 136.003 399.075,137.090 398.037,136.899 398.054 C 136.854 398.058,136.465 398.373,136.035 398.753 " stroke="none" fill="#7bc4e4" fill-rule="evenodd"></path><path id="path4" d="M332.764 19.838 C 332.034 20.234,332.078 20.399,332.813 20.020 C 333.135 19.853,333.398 19.675,333.398 19.624 C 333.398 19.498,333.377 19.505,332.764 19.838 M350.993 22.924 C 351.194 23.104,352.344 23.633,352.344 23.545 C 352.344 23.433,351.261 22.852,351.051 22.852 C 350.974 22.852,350.948 22.884,350.993 22.924 M318.018 27.973 C 317.776 28.089,317.578 28.320,317.578 28.485 C 317.578 28.745,317.611 28.748,317.822 28.504 C 317.957 28.349,318.194 28.113,318.350 27.979 C 318.686 27.689,318.610 27.687,318.018 27.973 M363.574 31.445 C 364.103 31.982,364.580 32.422,364.634 32.422 C 364.687 32.422,364.299 31.982,363.770 31.445 C 363.240 30.908,362.764 30.469,362.710 30.469 C 362.656 30.469,363.045 30.908,363.574 31.445 M330.469 32.910 C 330.737 33.064,331.045 33.189,331.152 33.189 C 331.260 33.189,331.128 33.064,330.859 32.910 C 330.591 32.757,330.283 32.631,330.176 32.631 C 330.068 32.631,330.200 32.757,330.469 32.910 M366.007 33.838 C 366.817 34.700,366.992 34.855,366.992 34.709 C 366.992 34.677,366.575 34.260,366.064 33.781 L 365.137 32.910 366.007 33.838 M335.156 35.049 C 335.156 35.102,335.420 35.283,335.742 35.449 C 336.064 35.616,336.328 35.708,336.328 35.655 C 336.328 35.601,336.064 35.421,335.742 35.254 C 335.420 35.087,335.156 34.995,335.156 35.049 M348.242 44.006 C 348.242 44.040,348.528 44.326,348.877 44.641 L 349.512 45.215 348.938 44.580 C 348.403 43.988,348.242 43.856,348.242 44.006 M374.316 45.508 C 374.483 45.830,374.663 46.094,374.717 46.094 C 374.771 46.094,374.678 45.830,374.512 45.508 C 374.345 45.186,374.165 44.922,374.111 44.922 C 374.057 44.922,374.150 45.186,374.316 45.508 M352.051 47.656 C 352.797 48.408,353.451 49.023,353.505 49.023 C 353.559 49.023,352.992 48.408,352.246 47.656 C 351.500 46.904,350.845 46.289,350.792 46.289 C 350.738 46.289,351.305 46.904,352.051 47.656 M217.081 88.135 L 216.309 88.965 217.139 88.193 C 217.911 87.475,218.059 87.305,217.911 87.305 C 217.879 87.305,217.505 87.678,217.081 88.135 " stroke="none" fill="#94c4dc" fill-rule="evenodd"></path></g></svg>